<mxfile host="app.diagrams.net" agent="Mozilla/5.0 (Windows NT 10.0; Win64; x64) AppleWebKit/537.36 (KHTML, like Gecko) Chrome/128.0.0.0 Safari/537.36" version="24.7.10">
  <diagram name="Página-1" id="eEJ-0p8HCi-mFZOOHUiT">
    <mxGraphModel dx="1486" dy="766" grid="1" gridSize="10" guides="1" tooltips="1" connect="1" arrows="1" fold="1" page="1" pageScale="1" pageWidth="827" pageHeight="1169" math="0" shadow="0">
      <root>
        <mxCell id="0" />
        <mxCell id="1" parent="0" />
        <mxCell id="wEgIOjfiDIlphTV_UnIY-1" value="Compra" style="html=1;whiteSpace=wrap;" parent="1" vertex="1">
          <mxGeometry x="170" y="360" width="110" height="50" as="geometry" />
        </mxCell>
        <mxCell id="wEgIOjfiDIlphTV_UnIY-4" value="Marca" style="html=1;whiteSpace=wrap;" parent="1" vertex="1">
          <mxGeometry x="628" y="400" width="110" height="50" as="geometry" />
        </mxCell>
        <mxCell id="lVLkWSktTIMoi4lAHS9Y-60" style="edgeStyle=orthogonalEdgeStyle;rounded=0;orthogonalLoop=1;jettySize=auto;html=1;entryX=0;entryY=0.5;entryDx=0;entryDy=0;endArrow=none;endFill=0;" parent="1" source="wEgIOjfiDIlphTV_UnIY-5" target="lVLkWSktTIMoi4lAHS9Y-57" edge="1">
          <mxGeometry relative="1" as="geometry" />
        </mxCell>
        <mxCell id="wEgIOjfiDIlphTV_UnIY-5" value="Cliente" style="html=1;whiteSpace=wrap;" parent="1" vertex="1">
          <mxGeometry x="40" y="440" width="110" height="50" as="geometry" />
        </mxCell>
        <mxCell id="wEgIOjfiDIlphTV_UnIY-10" value="Entrada Estoque" style="html=1;whiteSpace=wrap;" parent="1" vertex="1">
          <mxGeometry x="400" y="70" width="110" height="50" as="geometry" />
        </mxCell>
        <mxCell id="3VSIglFikXyJKSjwA9SF-3" value="" style="edgeStyle=none;curved=1;rounded=0;orthogonalLoop=1;jettySize=auto;html=1;fontSize=12;startSize=8;endSize=8;endArrow=none;endFill=0;" parent="1" edge="1">
          <mxGeometry relative="1" as="geometry">
            <mxPoint x="240" y="145" as="targetPoint" />
          </mxGeometry>
        </mxCell>
        <mxCell id="3VSIglFikXyJKSjwA9SF-4" value="" style="edgeStyle=none;curved=1;rounded=0;orthogonalLoop=1;jettySize=auto;html=1;fontSize=12;startSize=8;endSize=8;endArrow=none;endFill=0;" parent="1" edge="1">
          <mxGeometry relative="1" as="geometry">
            <mxPoint x="240" y="145" as="targetPoint" />
          </mxGeometry>
        </mxCell>
        <mxCell id="lVLkWSktTIMoi4lAHS9Y-4" style="edgeStyle=orthogonalEdgeStyle;rounded=0;orthogonalLoop=1;jettySize=auto;html=1;entryX=1;entryY=0.5;entryDx=0;entryDy=0;endArrow=none;endFill=0;" parent="1" source="lVLkWSktTIMoi4lAHS9Y-2" target="lVLkWSktTIMoi4lAHS9Y-1" edge="1">
          <mxGeometry relative="1" as="geometry" />
        </mxCell>
        <mxCell id="lVLkWSktTIMoi4lAHS9Y-7" style="edgeStyle=orthogonalEdgeStyle;rounded=0;orthogonalLoop=1;jettySize=auto;html=1;entryX=0;entryY=0.5;entryDx=0;entryDy=0;endArrow=none;endFill=0;" parent="1" source="lVLkWSktTIMoi4lAHS9Y-2" target="wEgIOjfiDIlphTV_UnIY-8" edge="1">
          <mxGeometry relative="1" as="geometry" />
        </mxCell>
        <mxCell id="lVLkWSktTIMoi4lAHS9Y-2" value="Tem" style="rhombus;whiteSpace=wrap;html=1;" parent="1" vertex="1">
          <mxGeometry x="310" y="250" width="40" height="30" as="geometry" />
        </mxCell>
        <mxCell id="lVLkWSktTIMoi4lAHS9Y-9" style="edgeStyle=orthogonalEdgeStyle;rounded=0;orthogonalLoop=1;jettySize=auto;html=1;entryX=0.5;entryY=1;entryDx=0;entryDy=0;endArrow=none;endFill=0;" parent="1" source="lVLkWSktTIMoi4lAHS9Y-8" target="wEgIOjfiDIlphTV_UnIY-10" edge="1">
          <mxGeometry relative="1" as="geometry" />
        </mxCell>
        <mxCell id="lVLkWSktTIMoi4lAHS9Y-10" style="edgeStyle=orthogonalEdgeStyle;rounded=0;orthogonalLoop=1;jettySize=auto;html=1;entryX=0.5;entryY=0;entryDx=0;entryDy=0;endArrow=none;endFill=0;" parent="1" source="lVLkWSktTIMoi4lAHS9Y-8" target="wEgIOjfiDIlphTV_UnIY-8" edge="1">
          <mxGeometry relative="1" as="geometry" />
        </mxCell>
        <mxCell id="lVLkWSktTIMoi4lAHS9Y-8" value="Tem" style="rhombus;whiteSpace=wrap;html=1;" parent="1" vertex="1">
          <mxGeometry x="435" y="160" width="40" height="30" as="geometry" />
        </mxCell>
        <mxCell id="lVLkWSktTIMoi4lAHS9Y-11" value="" style="group" parent="1" vertex="1" connectable="0">
          <mxGeometry x="130" y="240" width="142.5" height="50" as="geometry" />
        </mxCell>
        <mxCell id="3VSIglFikXyJKSjwA9SF-5" value="N" style="text;html=1;align=center;verticalAlign=middle;resizable=0;points=[];autosize=1;strokeColor=none;fillColor=none;fontSize=16;" parent="lVLkWSktTIMoi4lAHS9Y-11" vertex="1">
          <mxGeometry x="102.5" width="40" height="30" as="geometry" />
        </mxCell>
        <mxCell id="lVLkWSktTIMoi4lAHS9Y-1" value="Sainda Estoque" style="html=1;whiteSpace=wrap;" parent="lVLkWSktTIMoi4lAHS9Y-11" vertex="1">
          <mxGeometry width="110" height="50" as="geometry" />
        </mxCell>
        <mxCell id="lVLkWSktTIMoi4lAHS9Y-13" value="" style="group" parent="1" vertex="1" connectable="0">
          <mxGeometry x="370" y="240" width="140" height="50" as="geometry" />
        </mxCell>
        <mxCell id="wEgIOjfiDIlphTV_UnIY-8" value="Estoque" style="html=1;whiteSpace=wrap;" parent="lVLkWSktTIMoi4lAHS9Y-13" vertex="1">
          <mxGeometry x="30" width="110" height="50" as="geometry" />
        </mxCell>
        <mxCell id="lVLkWSktTIMoi4lAHS9Y-3" value="1" style="text;html=1;align=center;verticalAlign=middle;resizable=0;points=[];autosize=1;strokeColor=none;fillColor=none;fontSize=16;" parent="lVLkWSktTIMoi4lAHS9Y-13" vertex="1">
          <mxGeometry width="30" height="30" as="geometry" />
        </mxCell>
        <mxCell id="lVLkWSktTIMoi4lAHS9Y-22" value="1" style="text;html=1;align=center;verticalAlign=middle;resizable=0;points=[];autosize=1;strokeColor=none;fillColor=none;" parent="lVLkWSktTIMoi4lAHS9Y-13" vertex="1">
          <mxGeometry x="40" y="-30" width="30" height="30" as="geometry" />
        </mxCell>
        <mxCell id="lVLkWSktTIMoi4lAHS9Y-16" value="" style="edgeStyle=orthogonalEdgeStyle;rounded=0;orthogonalLoop=1;jettySize=auto;html=1;endArrow=none;endFill=0;" parent="1" source="lVLkWSktTIMoi4lAHS9Y-14" target="IcHUYRDayJJ3aay5ZyPJ-106" edge="1">
          <mxGeometry relative="1" as="geometry" />
        </mxCell>
        <mxCell id="lVLkWSktTIMoi4lAHS9Y-14" value="Tem" style="rhombus;whiteSpace=wrap;html=1;" parent="1" vertex="1">
          <mxGeometry x="550" y="330" width="40" height="30" as="geometry" />
        </mxCell>
        <mxCell id="lVLkWSktTIMoi4lAHS9Y-17" value="" style="edgeStyle=orthogonalEdgeStyle;rounded=0;orthogonalLoop=1;jettySize=auto;html=1;endArrow=none;endFill=0;" parent="1" source="wEgIOjfiDIlphTV_UnIY-8" target="lVLkWSktTIMoi4lAHS9Y-2" edge="1">
          <mxGeometry relative="1" as="geometry" />
        </mxCell>
        <mxCell id="lVLkWSktTIMoi4lAHS9Y-21" value="N" style="text;html=1;align=center;verticalAlign=middle;resizable=0;points=[];autosize=1;strokeColor=none;fillColor=none;" parent="1" vertex="1">
          <mxGeometry x="410" y="120" width="30" height="30" as="geometry" />
        </mxCell>
        <mxCell id="lVLkWSktTIMoi4lAHS9Y-27" value="" style="edgeStyle=orthogonalEdgeStyle;rounded=0;orthogonalLoop=1;jettySize=auto;html=1;endArrow=none;endFill=0;" parent="1" source="lVLkWSktTIMoi4lAHS9Y-25" target="lVLkWSktTIMoi4lAHS9Y-26" edge="1">
          <mxGeometry relative="1" as="geometry" />
        </mxCell>
        <mxCell id="lVLkWSktTIMoi4lAHS9Y-30" style="edgeStyle=orthogonalEdgeStyle;rounded=0;orthogonalLoop=1;jettySize=auto;html=1;endArrow=none;endFill=0;" parent="1" source="lVLkWSktTIMoi4lAHS9Y-25" edge="1">
          <mxGeometry relative="1" as="geometry">
            <mxPoint x="450" y="290" as="targetPoint" />
          </mxGeometry>
        </mxCell>
        <mxCell id="lVLkWSktTIMoi4lAHS9Y-25" value="Tem" style="rhombus;whiteSpace=wrap;html=1;" parent="1" vertex="1">
          <mxGeometry x="430" y="330" width="40" height="30" as="geometry" />
        </mxCell>
        <mxCell id="lVLkWSktTIMoi4lAHS9Y-33" style="edgeStyle=orthogonalEdgeStyle;rounded=0;orthogonalLoop=1;jettySize=auto;html=1;entryX=0;entryY=0.5;entryDx=0;entryDy=0;endArrow=none;endFill=0;" parent="1" source="lVLkWSktTIMoi4lAHS9Y-26" target="lVLkWSktTIMoi4lAHS9Y-14" edge="1">
          <mxGeometry relative="1" as="geometry">
            <Array as="points">
              <mxPoint x="490" y="345" />
            </Array>
          </mxGeometry>
        </mxCell>
        <mxCell id="lVLkWSktTIMoi4lAHS9Y-26" value="Produto" style="html=1;whiteSpace=wrap;" parent="1" vertex="1">
          <mxGeometry x="395" y="400" width="110" height="50" as="geometry" />
        </mxCell>
        <mxCell id="lVLkWSktTIMoi4lAHS9Y-31" value="N" style="text;html=1;align=center;verticalAlign=middle;resizable=0;points=[];autosize=1;strokeColor=none;fillColor=none;" parent="1" vertex="1">
          <mxGeometry x="399" y="370" width="30" height="30" as="geometry" />
        </mxCell>
        <mxCell id="lVLkWSktTIMoi4lAHS9Y-32" value="1" style="text;html=1;align=center;verticalAlign=middle;resizable=0;points=[];autosize=1;strokeColor=none;fillColor=none;" parent="1" vertex="1">
          <mxGeometry x="399" y="290" width="30" height="30" as="geometry" />
        </mxCell>
        <mxCell id="lVLkWSktTIMoi4lAHS9Y-35" value="" style="group" parent="1" vertex="1" connectable="0">
          <mxGeometry x="600" y="320" width="140" height="50" as="geometry" />
        </mxCell>
        <mxCell id="IcHUYRDayJJ3aay5ZyPJ-106" value="Localização estoque" style="html=1;whiteSpace=wrap;" parent="lVLkWSktTIMoi4lAHS9Y-35" vertex="1">
          <mxGeometry x="30" width="110" height="50" as="geometry" />
        </mxCell>
        <mxCell id="lVLkWSktTIMoi4lAHS9Y-24" value="N" style="text;html=1;align=center;verticalAlign=middle;resizable=0;points=[];autosize=1;strokeColor=none;fillColor=none;" parent="lVLkWSktTIMoi4lAHS9Y-35" vertex="1">
          <mxGeometry width="30" height="30" as="geometry" />
        </mxCell>
        <mxCell id="lVLkWSktTIMoi4lAHS9Y-36" value="1" style="text;html=1;align=center;verticalAlign=middle;resizable=0;points=[];autosize=1;strokeColor=none;fillColor=none;" parent="1" vertex="1">
          <mxGeometry x="490" y="370" width="30" height="30" as="geometry" />
        </mxCell>
        <mxCell id="lVLkWSktTIMoi4lAHS9Y-38" value="" style="edgeStyle=orthogonalEdgeStyle;rounded=0;orthogonalLoop=1;jettySize=auto;html=1;endArrow=none;endFill=0;" parent="1" source="lVLkWSktTIMoi4lAHS9Y-37" target="wEgIOjfiDIlphTV_UnIY-4" edge="1">
          <mxGeometry relative="1" as="geometry" />
        </mxCell>
        <mxCell id="lVLkWSktTIMoi4lAHS9Y-40" style="edgeStyle=orthogonalEdgeStyle;rounded=0;orthogonalLoop=1;jettySize=auto;html=1;entryX=1;entryY=0.5;entryDx=0;entryDy=0;endArrow=none;endFill=0;" parent="1" source="lVLkWSktTIMoi4lAHS9Y-37" target="lVLkWSktTIMoi4lAHS9Y-26" edge="1">
          <mxGeometry relative="1" as="geometry" />
        </mxCell>
        <mxCell id="lVLkWSktTIMoi4lAHS9Y-37" value="Tem" style="rhombus;whiteSpace=wrap;html=1;" parent="1" vertex="1">
          <mxGeometry x="550" y="410" width="40" height="30" as="geometry" />
        </mxCell>
        <mxCell id="lVLkWSktTIMoi4lAHS9Y-41" value="1" style="text;html=1;align=center;verticalAlign=middle;resizable=0;points=[];autosize=1;strokeColor=none;fillColor=none;" parent="1" vertex="1">
          <mxGeometry x="505" y="400" width="30" height="30" as="geometry" />
        </mxCell>
        <mxCell id="lVLkWSktTIMoi4lAHS9Y-42" value="1" style="text;html=1;align=center;verticalAlign=middle;resizable=0;points=[];autosize=1;strokeColor=none;fillColor=none;" parent="1" vertex="1">
          <mxGeometry x="598" y="400" width="30" height="30" as="geometry" />
        </mxCell>
        <mxCell id="lVLkWSktTIMoi4lAHS9Y-50" value="" style="edgeStyle=orthogonalEdgeStyle;rounded=0;orthogonalLoop=1;jettySize=auto;html=1;endArrow=none;endFill=0;" parent="1" source="lVLkWSktTIMoi4lAHS9Y-49" target="wEgIOjfiDIlphTV_UnIY-1" edge="1">
          <mxGeometry relative="1" as="geometry" />
        </mxCell>
        <mxCell id="lVLkWSktTIMoi4lAHS9Y-51" style="edgeStyle=orthogonalEdgeStyle;rounded=0;orthogonalLoop=1;jettySize=auto;html=1;entryX=0;entryY=0.5;entryDx=0;entryDy=0;" parent="1" source="lVLkWSktTIMoi4lAHS9Y-49" target="lVLkWSktTIMoi4lAHS9Y-26" edge="1">
          <mxGeometry relative="1" as="geometry">
            <Array as="points">
              <mxPoint x="375" y="385" />
              <mxPoint x="375" y="425" />
            </Array>
          </mxGeometry>
        </mxCell>
        <mxCell id="lVLkWSktTIMoi4lAHS9Y-49" value="Tem" style="rhombus;whiteSpace=wrap;html=1;" parent="1" vertex="1">
          <mxGeometry x="320" y="370" width="40" height="30" as="geometry" />
        </mxCell>
        <mxCell id="lVLkWSktTIMoi4lAHS9Y-54" value="N" style="text;html=1;align=center;verticalAlign=middle;resizable=0;points=[];autosize=1;strokeColor=none;fillColor=none;" parent="1" vertex="1">
          <mxGeometry x="280" y="360" width="30" height="30" as="geometry" />
        </mxCell>
        <mxCell id="lVLkWSktTIMoi4lAHS9Y-55" value="N" style="text;html=1;align=center;verticalAlign=middle;resizable=0;points=[];autosize=1;strokeColor=none;fillColor=none;" parent="1" vertex="1">
          <mxGeometry x="370" y="395" width="30" height="30" as="geometry" />
        </mxCell>
        <mxCell id="lVLkWSktTIMoi4lAHS9Y-57" value="Faz" style="rhombus;whiteSpace=wrap;html=1;" parent="1" vertex="1">
          <mxGeometry x="200" y="450" width="40" height="30" as="geometry" />
        </mxCell>
        <mxCell id="lVLkWSktTIMoi4lAHS9Y-59" style="edgeStyle=orthogonalEdgeStyle;rounded=0;orthogonalLoop=1;jettySize=auto;html=1;entryX=0.455;entryY=1;entryDx=0;entryDy=0;entryPerimeter=0;endArrow=none;endFill=0;" parent="1" source="lVLkWSktTIMoi4lAHS9Y-57" target="wEgIOjfiDIlphTV_UnIY-1" edge="1">
          <mxGeometry relative="1" as="geometry" />
        </mxCell>
        <mxCell id="lVLkWSktTIMoi4lAHS9Y-61" value="1" style="text;html=1;align=center;verticalAlign=middle;resizable=0;points=[];autosize=1;strokeColor=none;fillColor=none;" parent="1" vertex="1">
          <mxGeometry x="150" y="440" width="30" height="30" as="geometry" />
        </mxCell>
        <mxCell id="lVLkWSktTIMoi4lAHS9Y-62" value="N" style="text;html=1;align=center;verticalAlign=middle;resizable=0;points=[];autosize=1;strokeColor=none;fillColor=none;" parent="1" vertex="1">
          <mxGeometry x="190" y="410" width="30" height="30" as="geometry" />
        </mxCell>
        <mxCell id="lVLkWSktTIMoi4lAHS9Y-63" value="Fornecedor" style="html=1;whiteSpace=wrap;" parent="1" vertex="1">
          <mxGeometry x="190" y="550" width="110" height="50" as="geometry" />
        </mxCell>
        <mxCell id="lVLkWSktTIMoi4lAHS9Y-66" style="edgeStyle=orthogonalEdgeStyle;rounded=0;orthogonalLoop=1;jettySize=auto;html=1;" parent="1" source="lVLkWSktTIMoi4lAHS9Y-65" edge="1">
          <mxGeometry relative="1" as="geometry">
            <mxPoint x="400" y="450" as="targetPoint" />
            <Array as="points">
              <mxPoint x="400" y="495" />
              <mxPoint x="400" y="450" />
            </Array>
          </mxGeometry>
        </mxCell>
        <mxCell id="lVLkWSktTIMoi4lAHS9Y-67" style="edgeStyle=orthogonalEdgeStyle;rounded=0;orthogonalLoop=1;jettySize=auto;html=1;entryX=0.5;entryY=0;entryDx=0;entryDy=0;" parent="1" source="lVLkWSktTIMoi4lAHS9Y-65" target="lVLkWSktTIMoi4lAHS9Y-63" edge="1">
          <mxGeometry relative="1" as="geometry" />
        </mxCell>
        <mxCell id="lVLkWSktTIMoi4lAHS9Y-65" value="Tem" style="rhombus;whiteSpace=wrap;html=1;" parent="1" vertex="1">
          <mxGeometry x="320" y="480" width="40" height="30" as="geometry" />
        </mxCell>
        <mxCell id="lVLkWSktTIMoi4lAHS9Y-68" value="N" style="text;html=1;align=center;verticalAlign=middle;resizable=0;points=[];autosize=1;strokeColor=none;fillColor=none;" parent="1" vertex="1">
          <mxGeometry x="370" y="460" width="30" height="30" as="geometry" />
        </mxCell>
        <mxCell id="lVLkWSktTIMoi4lAHS9Y-69" value="1" style="text;html=1;align=center;verticalAlign=middle;resizable=0;points=[];autosize=1;strokeColor=none;fillColor=none;" parent="1" vertex="1">
          <mxGeometry x="250" y="520" width="30" height="30" as="geometry" />
        </mxCell>
      </root>
    </mxGraphModel>
  </diagram>
</mxfile>
